<svg width="53" height="60" viewBox="0 0 53 60" fill="none" xmlns="http://www.w3.org/2000/svg">
<path d="M16.96 56.0933V56.4533H17.6806V55.96H16.96V56.08V56.0933Z" fill="#004A82"/>
<path d="M17.6806 54.52H16.96V55H17.6806V54.52Z" fill="#004A82"/>
<path d="M20.2005 50.5067H19.6267L19.9203 51.8133L20.2005 51.96L20.4941 51.8133L20.7877 50.5067H20.2005Z" fill="#004A82"/>
<path d="M23.8142 57.56H22.7333V58.04H23.8142V57.56Z" fill="#004A82"/>
<path d="M23.8142 55.9733H22.7333V56.4533H23.8142V55.9733Z" fill="#004A82"/>
<path d="M23.8142 54.52H22.7333V55H23.8142V54.52Z" fill="#004A82"/>
<path d="M26.3338 50.5067H25.76L26.0536 51.8133L26.3338 51.96L26.6274 51.8133L26.921 50.5067H26.3338Z" fill="#004A82"/>
<path d="M29.9476 57.56H28.8667V58.04H29.9476V57.56Z" fill="#004A82"/>
<path d="M29.9476 55.9733H28.8667V56.4533H29.9476V55.9733Z" fill="#004A82"/>
<path d="M29.9476 54.52H28.8667V55H29.9476V54.52Z" fill="#004A82"/>
<path d="M32.4671 50.5067H31.8933L32.1736 51.8133L32.4538 51.96L32.734 51.8133L33.0276 50.5067H32.4538H32.4671Z" fill="#004A82"/>
<path d="M35 56.0933V56.4533H35.7206V55.96H35V56.08V56.0933Z" fill="#004A82"/>
<path d="M35.7206 54.52H35V55H35.7206V54.52Z" fill="#004A82"/>
<path d="M43.4133 44.7733H41.8533V45.0267H43.4133V44.7733Z" fill="#004A82"/>
<path d="M43.4133 46.36H41.8533V46.6133H43.4133V46.36Z" fill="#004A82"/>
<path d="M43.4133 43.2H41.8533V43.44H43.4133V43.2Z" fill="#004A82"/>
<path d="M43.4133 41.6267H41.8533V41.8667H43.4133V41.6267Z" fill="#004A82"/>
<path d="M43.4133 40.04H41.8533V40.28H43.4133V40.04Z" fill="#004A82"/>
<path d="M43.4133 38.4533H41.8533V38.6933H43.4133V38.4533Z" fill="#004A82"/>
<path d="M41.24 40.04H38.84V46.6133H41.24V40.04Z" fill="#004A82"/>
<path d="M38.2401 44.7733H36.6801V45.0267H38.2401V44.7733Z" fill="#004A82"/>
<path d="M38.2401 46.36H36.6801V46.6133H38.2401V46.36Z" fill="#004A82"/>
<path d="M38.2401 43.2H36.6801V43.44H38.2401V43.2Z" fill="#004A82"/>
<path d="M38.2401 41.6267H36.6801V41.8667H38.2401V41.6267Z" fill="#004A82"/>
<path d="M38.2401 40.04H36.6801V40.28H38.2401V40.04Z" fill="#004A82"/>
<path d="M38.2401 38.4533H36.6801V38.6933H38.2401V38.4533Z" fill="#004A82"/>
<path d="M34.4 47.4667H30.5466V48.2H34.4V47.4667Z" fill="#004A82"/>
<path d="M33.6667 40.76H31.2667V47.0933H33.6667V40.76Z" fill="#004A82"/>
<path d="M24.4133 47.4667V48.2H28.2667V47.4667H24.4133Z" fill="#004A82"/>
<path d="M27.5466 47.1067V40.7733H25.1466V47.1067H27.5466Z" fill="#004A82"/>
<path d="M22.1334 47.4667H18.28V48.2H22.1334V47.4667Z" fill="#004A82"/>
<path d="M21.4133 40.76H19.0133V47.0933H21.4133V40.76Z" fill="#004A82"/>
<path d="M15.9999 44.7733H14.4399V45.0267H15.9999V44.7733Z" fill="#004A82"/>
<path d="M15.9999 46.36H14.4399V46.6133H15.9999V46.36Z" fill="#004A82"/>
<path d="M15.9999 43.2H14.4399V43.44H15.9999V43.2Z" fill="#004A82"/>
<path d="M15.9999 41.6267H14.4399V41.8667H15.9999V41.6267Z" fill="#004A82"/>
<path d="M15.9999 40.04H14.4399V40.28H15.9999V40.04Z" fill="#004A82"/>
<path d="M15.9999 38.4533H14.4399V38.6933H15.9999V38.4533Z" fill="#004A82"/>
<path d="M13.8266 40.04H11.4266V46.6133H13.8266V40.04Z" fill="#004A82"/>
<path d="M10.84 43.2H9.28003V43.44H10.84V43.2Z" fill="#004A82"/>
<path d="M10.84 44.7733H9.28003V45.0267H10.84V44.7733Z" fill="#004A82"/>
<path d="M10.84 41.6267H9.28003V41.8667H10.84V41.6267Z" fill="#004A82"/>
<path d="M10.84 40.04H9.28003V40.28H10.84V40.04Z" fill="#004A82"/>
<path d="M10.84 38.4533H9.28003V38.6933H10.84V38.4533Z" fill="#004A82"/>
<path d="M10.84 46.36H9.28003V46.6133H10.84V46.36Z" fill="#004A82"/>
<path d="M20.1467 26.6533C20.88 26.6533 21.4667 26.0533 21.4667 25.32C21.4667 24.5867 20.8667 23.9867 20.1467 23.9867C19.4267 23.9867 18.8267 24.5867 18.8267 25.32C18.8267 26.0533 19.4267 26.6533 20.1467 26.6533Z" fill="#004A82"/>
<path d="M26.3333 26.6533C27.0666 26.6533 27.6533 26.0533 27.6533 25.32C27.6533 24.5867 27.0533 23.9867 26.3333 23.9867C25.6133 23.9867 25.0133 24.5867 25.0133 25.32C25.0133 26.0533 25.6133 26.6533 26.3333 26.6533Z" fill="#004A82"/>
<path d="M32.5334 26.6533C33.2667 26.6533 33.8534 26.0533 33.8534 25.32C33.8534 24.5867 33.2534 23.9867 32.5334 23.9867C31.8134 23.9867 31.2134 24.5867 31.2134 25.32C31.2134 26.0533 31.8134 26.6533 32.5334 26.6533Z" fill="#004A82"/>
<path d="M16.8399 32H16.7733C15.7866 30.8133 14.2933 30.0533 12.6399 30.0533C10.9866 30.0533 9.49327 30.8 8.50661 32H8.43994V32.48H16.8533V32H16.8399Z" fill="#004A82"/>
<path d="M35.7201 29.08V28.36H16.9734V29.08H35.7201Z" fill="#004A82"/>
<path d="M18.28 31.16H34.3867V30.5467H35.7067V29.9333H16.9467V30.5467H18.2667V31.16H18.28Z" fill="#004A82"/>
<path d="M34.4 32H18.2933V32.48H34.4V32Z" fill="#004A82"/>
<path d="M36.6801 33.4667H16.0001V32.8533H9.26672V34.3067H16.9601V35.16H35.7201V34.3067H43.4134V32.8533H36.6801V33.4667Z" fill="#004A82"/>
<path d="M9.26672 36.5067H11.1867V37.6H11.4534C11.7067 37.9733 12.1467 38.2133 12.6267 38.2133C13.1067 38.2133 13.5334 37.9733 13.8001 37.6H14.0801V36.5067H16.0001V35.5333H9.26672V36.5067Z" fill="#004A82"/>
<path d="M36.6801 36.5067H38.6001V37.6H38.8801C39.1334 37.9733 39.5734 38.2133 40.0534 38.2133C40.5334 38.2133 40.9601 37.9733 41.2267 37.6H41.4934V36.5067H43.4134V35.5333H36.6801V36.5067Z" fill="#004A82"/>
<path d="M20.2 37.3333C20.68 37.3333 21.0667 37.7333 21.0667 38.2133C21.0667 38.6933 20.68 39.0933 20.2 39.0933C19.72 39.0933 19.3333 38.7067 19.3333 38.2133C19.3333 37.72 19.72 37.3333 20.2 37.3333ZM16.96 37.36H19.3467C19.28 37.4267 19.2133 37.52 19.16 37.6H18.28V38.9333H19.24C19.4533 39.2267 19.8 39.4133 20.2 39.4133C20.6 39.4133 20.9467 39.2133 21.16 38.9333H22.12V37.6H21.24C21.1867 37.5067 21.12 37.4267 21.0533 37.36H24.6C24.9067 36.72 25.5733 36.2667 26.3333 36.2667H16.96V37.36Z" fill="#004A82"/>
<path d="M32.4667 37.3333C32.9467 37.3333 33.3334 37.7333 33.3334 38.2133C33.3334 38.6933 32.9467 39.0933 32.4667 39.0933C31.9867 39.0933 31.6 38.7067 31.6 38.2133C31.6 37.72 31.9867 37.3333 32.4667 37.3333ZM28.0667 37.36H31.6134C31.5467 37.4267 31.48 37.52 31.4267 37.6H30.5467V38.9333H31.5067C31.72 39.2267 32.0667 39.4133 32.4667 39.4133C32.8667 39.4133 33.2134 39.2133 33.4267 38.9333H34.3867V37.6H33.5067C33.4534 37.5067 33.4 37.4267 33.32 37.36H35.7067V36.2667H26.3334C27.0934 36.2667 27.76 36.72 28.0667 37.36Z" fill="#004A82"/>
<path d="M23.9333 37.6133V38.9467H24.5606C24.4671 38.72 24.4271 38.48 24.4271 38.2133C24.4271 38 24.4671 37.8 24.5205 37.6H23.9333V37.6133Z" fill="#004A82"/>
<path d="M28.2668 38.2133C28.2668 38.4667 28.2134 38.72 28.1333 38.9467H28.7605V37.6133H28.1733C28.2267 37.8 28.2668 38.0133 28.2668 38.2267V38.2133Z" fill="#004A82"/>
<path d="M27.5467 38.2133C27.5467 37.88 27.4133 37.5733 27.2 37.3467L26.48 38.28C26.48 38.28 26.48 38.28 26.48 38.3067C26.48 38.3067 26.48 38.3067 26.48 38.32L26.4533 38.3467C26.4533 38.3467 26.32 38.3733 26.2667 38.32C26.2667 38.3067 26.24 38.2933 26.24 38.28L25.8533 37.68L26.3733 38.0267L27.2267 37.3467C27.0133 37.1333 26.7067 36.9867 26.3733 36.9867C25.7067 36.9867 25.1733 37.5333 25.1733 38.2C25.1733 38.8667 25.7067 39.4133 26.3733 39.4133C27.04 39.4133 27.5733 38.8667 27.5733 38.2" fill="#004A82"/>
<path d="M18.28 40.28H22.1334V39.6667H18.28V40.28Z" fill="#004A82"/>
<path d="M26.3334 40.16C25.8534 40.16 25.4 39.9733 25.0534 39.68H24.4V40.2933H28.2534V39.68H27.6C27.2667 39.9867 26.8134 40.16 26.32 40.16" fill="#004A82"/>
<path d="M34.4 39.6667H30.5466V40.28H34.4V39.6667Z" fill="#004A82"/>
<path d="M19.6133 51.2933L19.5066 50.8133C18.0533 51.1333 16.96 52.4533 16.96 54.0267H17.92C17.92 52.92 18.68 52 19.72 51.7733L19.6666 51.5333L19.6133 51.2933Z" fill="#004A82"/>
<path d="M25.6934 51.04L25.6401 50.8267C24.5334 51.08 23.6401 51.8933 23.2667 52.96C22.8934 51.8933 22.0134 51.08 20.8934 50.8267L20.8401 51.04L20.6801 51.7733C21.7067 52 22.4801 52.9333 22.4801 54.0267H24.0401C24.0401 52.92 24.8001 52 25.8401 51.7733L25.6801 51.04H25.6934Z" fill="#004A82"/>
<path d="M31.7734 50.8267C30.6667 51.08 29.7734 51.8933 29.4 52.9467C29.0267 51.88 28.1467 51.0667 27.0267 50.8267L26.9734 51.04L26.8134 51.7733C27.84 52 28.6134 52.9333 28.6134 54.0267H30.1734C30.1734 52.92 30.9334 52 31.9734 51.7733L31.8134 51.04L31.76 50.8267H31.7734Z" fill="#004A82"/>
<path d="M33.1733 50.8267L33.12 51.04L32.96 51.7733C33.9866 52 34.76 52.9333 34.76 54.0267H35.72C35.72 52.4533 34.6266 51.1467 33.1733 50.8133" fill="#004A82"/>
<path d="M22.6132 57.0133C22.6132 57.0133 22.5599 57.04 22.5599 57.0667C22.5599 57.0933 22.5866 57.12 22.6132 57.12C22.6398 57.12 22.6664 57.0933 22.6664 57.0667C22.6664 57.04 22.6398 57.0133 22.6132 57.0133Z" fill="#004A82"/>
<path d="M22.9732 57.1333C22.9732 57.1333 22.9466 57.08 22.92 57.08C22.8933 57.08 22.8667 57.1067 22.8667 57.1333C22.8667 57.16 22.8933 57.1867 22.92 57.1867C22.9466 57.1867 22.9732 57.16 22.9732 57.1333Z" fill="#004A82"/>
<path d="M23.3332 56.8933C23.3332 56.8933 23.3066 56.84 23.2799 56.84C23.2533 56.84 23.2267 56.8667 23.2267 56.8933C23.2267 56.92 23.2533 56.9467 23.2799 56.9467C23.3066 56.9467 23.3332 56.92 23.3332 56.8933Z" fill="#004A82"/>
<path d="M22.9874 18.6133H22.1333V19.4667H22.9874V18.6133Z" fill="#004A82"/>
<path d="M24.0675 18.6133H23.2134V19.4667H24.0675V18.6133Z" fill="#004A82"/>
<path d="M26.2274 18.6133H25.3733V19.4667H26.2274V18.6133Z" fill="#004A82"/>
<path d="M27.3074 18.6133H26.4534V19.4667H27.3074V18.6133Z" fill="#004A82"/>
<path d="M25.1474 18.6133H24.2933V19.4667H25.1474V18.6133Z" fill="#004A82"/>
<path d="M21.8941 18.6133H21.04V19.4667H21.8941V18.6133Z" fill="#004A82"/>
<path d="M18.6541 18.6133H17.8V19.4667H18.6541V18.6133Z" fill="#004A82"/>
<path d="M19.7341 18.6133H18.88V19.4667H19.7341V18.6133Z" fill="#004A82"/>
<path d="M20.814 18.6133H19.96V19.4667H20.814V18.6133Z" fill="#004A82"/>
<path d="M34.8807 18.6133H34.0266V19.4667H34.8807V18.6133Z" fill="#004A82"/>
<path d="M33.8007 18.6133H32.9467V19.4667H33.8007V18.6133Z" fill="#004A82"/>
<path d="M32.7208 18.6133H31.8667V19.4667H32.7208V18.6133Z" fill="#004A82"/>
<path d="M52.6933 33.1333V0H0V33.6533C0 33.8933 0.0266667 34.2667 0.0266667 34.2667C0.506667 48.56 12.0933 60.0133 26.3467 60.0133C40.6 60.0133 52.5067 48.2667 52.7067 33.72V33.3333C52.7067 33.1467 52.7067 33.3333 52.7067 33.16M16.9733 19.96L17.5733 19.3467V17.4H17.8133V18.3733H34.88V17.4H35.12V19.3467L35.72 19.96V20.6933H16.96V19.96H16.9733ZM1.81333 38.9467H8.18666V39.8H2.02667C1.96 39.52 1.89333 39.24 1.82667 38.9467H1.81333ZM44.1333 51.2267H36.1867V51.96H43.4933C42.7067 52.7067 41.8667 53.4 40.9867 54.0267H36.1733V54.76H39.92C38.2 55.88 36.3467 56.8 34.3867 57.4667V54.0267C34.3867 52.9467 33.52 52.08 32.4667 52.08C31.4133 52.08 30.5467 52.9467 30.5467 54.0267V58.4533C29.8 58.5867 29.0267 58.68 28.2667 58.7333V54.0267C28.2667 52.9467 27.4 52.08 26.3467 52.08C25.2933 52.08 24.4267 52.9467 24.4267 54.0267V58.7333C23.6667 58.68 22.8933 58.5733 22.1467 58.4533V54.0267C22.1467 52.9467 21.28 52.08 20.2267 52.08C19.1733 52.08 18.3067 52.9467 18.3067 54.0267V57.48C16.3333 56.8 14.48 55.88 12.76 54.76H16.4933V54.0267H11.6933C10.8133 53.3867 9.97333 52.7067 9.18666 51.96H16.4933V51.2267H8.56V49.28H16.9733V49.64H35.7333V49.28H44.1467V51.2267H44.12H44.1333ZM50.6533 39.8H44.4933V38.9467H50.8667C50.8 39.2267 50.7333 39.52 50.6667 39.8H50.6533ZM51.3333 36.0133H44.1333V36.4933H51.28C51.24 36.7733 51.2133 37.0667 51.16 37.3467H44.1333V47.08H44.4933V40.1467H50.56C50.4533 40.56 50.32 40.96 50.2 41.36H48.8267V44.7333C48.5333 45.3467 48.2133 45.9333 47.8667 46.5067V41.36H45.6933V47.08H47.4933C47.0933 47.7067 46.68 48.32 46.2267 48.9067H44.1333V48.1733H36.2V48.6533H16.4933V48.1733H8.56V48.9067H6.46666C6.01333 48.32 5.58667 47.7067 5.18667 47.08H6.98666V41.36H4.81333V46.5067C4.46667 45.92 4.14667 45.3333 3.85333 44.7333V41.36H2.48C2.34667 40.96 2.22667 40.56 2.12 40.1467H8.18666V47.08H8.54666V37.3467H1.52C1.48 37.0667 1.44 36.7867 1.4 36.4933H8.54666V36.0133H1.34667C1.32 35.6933 1.28 35.3733 1.25333 35.04H8.53333V32.8533H7.57333V31.76H8.21333C8.52 31.4 8.86666 31.0667 9.25333 30.7867V29.08H11.1867C11.6 29.32 12.0933 29.4667 12.6267 29.4667C13.16 29.4667 13.64 29.3333 14.0667 29.08H16.72V28.3467H14.92V27.9867H10.3467V28.3467H8.54666V27.0133H9.26666C9.36 23.9067 12.68 21.4267 16.7733 21.4267H35.8933C39.9867 21.4267 43.32 23.92 43.4 27.0133H44.12V28.3467H42.32V27.9867H37.7467V28.3467H35.9467V29.08H38.6C39.0133 29.32 39.5067 29.4667 40.04 29.4667C40.5733 29.4667 41.0533 29.3333 41.48 29.08H43.4133V30.7867C43.8 31.0667 44.1467 31.4 44.4533 31.76H45.0933V32.8533H44.1333V35.04H51.4133C51.3867 35.36 51.36 35.6933 51.32 36.0133" fill="#004A82"/>
<path d="M31.6274 18.6133H30.7733V19.4667H31.6274V18.6133Z" fill="#004A82"/>
<path d="M28.3874 18.6133H27.5333V19.4667H28.3874V18.6133Z" fill="#004A82"/>
<path d="M29.4674 18.6133H28.6133V19.4667H29.4674V18.6133Z" fill="#004A82"/>
<path d="M30.5474 18.6133H29.6934V19.4667H30.5474V18.6133Z" fill="#004A82"/>
<path d="M44.2533 32.2533V32.0133H44.1866C43.1999 30.8133 41.7066 30.0667 40.0533 30.0667C38.3999 30.0667 36.9066 30.8133 35.9199 32.0133H35.8533V32.4933H44.2666V32.2533H44.2533Z" fill="#004A82"/>
</svg>
